TITLE ""
FILE "1Q_t_0629-0638.mp3" MP3
  TRACK 01 AUDIO
    TITLE "1Q_t_0629-0638_01"
    INDEX 01 00:00:00
  TRACK 02 AUDIO
    TITLE "1Q_t_0629-0638_02"
    INDEX 01 00:01:16
  TRACK 03 AUDIO
    TITLE "1Q_t_0629-0638_03"
    INDEX 01 00:01:23
  TRACK 04 AUDIO
    TITLE "1Q_t_0629-0638_04"
    INDEX 01 00:03:42
  TRACK 05 AUDIO
    TITLE "1Q_t_0629-0638_05"
    INDEX 01 00:03:48
  TRACK 06 AUDIO
    TITLE "1Q_t_0629-0638_06"
    INDEX 01 00:10:09
  TRACK 07 AUDIO
    TITLE "1Q_t_0629-0638_07"
    INDEX 01 00:10:56
  TRACK 08 AUDIO
    TITLE "1Q_t_0629-0638_08"
    INDEX 01 00:11:61
  TRACK 09 AUDIO
    TITLE "1Q_t_0629-0638_09"
    INDEX 01 00:11:71
  TRACK 10 AUDIO
    TITLE "1Q_t_0629-0638_10"
    INDEX 01 00:15:16
  TRACK 11 AUDIO
    TITLE "1Q_t_0629-0638_11"
    INDEX 01 00:15:24
  TRACK 12 AUDIO
    TITLE "1Q_t_0629-0638_12"
    INDEX 01 00:20:60
  TRACK 13 AUDIO
    TITLE "1Q_t_0629-0638_13"
    INDEX 01 00:21:32
  TRACK 14 AUDIO
    TITLE "1Q_t_0629-0638_14"
    INDEX 01 00:22:45
  TRACK 15 AUDIO
    TITLE "1Q_t_0629-0638_15"
    INDEX 01 00:22:55
  TRACK 16 AUDIO
    TITLE "1Q_t_0629-0638_16"
    INDEX 01 00:24:54
  TRACK 17 AUDIO
    TITLE "1Q_t_0629-0638_17"
    INDEX 01 00:24:62
  TRACK 18 AUDIO
    TITLE "1Q_t_0629-0638_18"
    INDEX 01 00:30:62
  TRACK 19 AUDIO
    TITLE "1Q_t_0629-0638_19"
    INDEX 01 00:31:32
  TRACK 20 AUDIO
    TITLE "1Q_t_0629-0638_20"
    INDEX 01 00:32:51
  TRACK 21 AUDIO
    TITLE "1Q_t_0629-0638_21"
    INDEX 01 00:32:59
  TRACK 22 AUDIO
    TITLE "1Q_t_0629-0638_22"
    INDEX 01 00:36:59
  TRACK 23 AUDIO
    TITLE "1Q_t_0629-0638_23"
    INDEX 01 00:36:67
  TRACK 24 AUDIO
    TITLE "1Q_t_0629-0638_24"
    INDEX 01 00:42:60
  TRACK 25 AUDIO
    TITLE "1Q_t_0629-0638_25"
    INDEX 01 00:43:30
  TRACK 26 AUDIO
    TITLE "1Q_t_0629-0638_26"
    INDEX 01 00:44:35
  TRACK 27 AUDIO
    TITLE "1Q_t_0629-0638_27"
    INDEX 01 00:44:47
  TRACK 28 AUDIO
    TITLE "1Q_t_0629-0638_28"
    INDEX 01 00:47:24
  TRACK 29 AUDIO
    TITLE "1Q_t_0629-0638_29"
    INDEX 01 00:47:31
  TRACK 30 AUDIO
    TITLE "1Q_t_0629-0638_30"
    INDEX 01 00:53:10
  TRACK 31 AUDIO
    TITLE "1Q_t_0629-0638_31"
    INDEX 01 00:53:57
  TRACK 32 AUDIO
    TITLE "1Q_t_0629-0638_32"
    INDEX 01 00:54:75
  TRACK 33 AUDIO
    TITLE "1Q_t_0629-0638_33"
    INDEX 01 00:55:17
  TRACK 34 AUDIO
    TITLE "1Q_t_0629-0638_34"
    INDEX 01 00:58:02
  TRACK 35 AUDIO
    TITLE "1Q_t_0629-0638_35"
    INDEX 01 00:58:10
  TRACK 36 AUDIO
    TITLE "1Q_t_0629-0638_36"
    INDEX 01 01:04:34
  TRACK 37 AUDIO
    TITLE "1Q_t_0629-0638_37"
    INDEX 01 01:05:06
  TRACK 38 AUDIO
    TITLE "1Q_t_0629-0638_38"
    INDEX 01 01:06:17
  TRACK 39 AUDIO
    TITLE "1Q_t_0629-0638_39"
    INDEX 01 01:06:29
  TRACK 40 AUDIO
    TITLE "1Q_t_0629-0638_40"
    INDEX 01 01:08:43
  TRACK 41 AUDIO
    TITLE "1Q_t_0629-0638_41"
    INDEX 01 01:08:51
  TRACK 42 AUDIO
    TITLE "1Q_t_0629-0638_42"
    INDEX 01 01:14:71
  TRACK 43 AUDIO
    TITLE "1Q_t_0629-0638_43"
    INDEX 01 01:15:41
  TRACK 44 AUDIO
    TITLE "1Q_t_0629-0638_44"
    INDEX 01 01:16:39
  TRACK 45 AUDIO
    TITLE "1Q_t_0629-0638_45"
    INDEX 01 01:16:49
  TRACK 46 AUDIO
    TITLE "1Q_t_0629-0638_46"
    INDEX 01 01:18:42
  TRACK 47 AUDIO
    TITLE "1Q_t_0629-0638_47"
    INDEX 01 01:18:50
  TRACK 48 AUDIO
    TITLE "1Q_t_0629-0638_48"
    INDEX 01 01:22:67
  TRACK 49 AUDIO
    TITLE "1Q_t_0629-0638_49"
    INDEX 01 01:23:37
  TRACK 50 AUDIO
    TITLE "1Q_t_0629-0638_50"
    INDEX 01 01:24:56
  TRACK 51 AUDIO
    TITLE "1Q_t_0629-0638_51"
    INDEX 01 01:24:66
  TRACK 52 AUDIO
    TITLE "1Q_t_0629-0638_52"
    INDEX 01 01:26:10
  TRACK 53 AUDIO
    TITLE "1Q_t_0629-0638_53"
    INDEX 01 01:26:16
  TRACK 54 AUDIO
    TITLE "1Q_t_0629-0638_54"
    INDEX 01 01:32:54
  TRACK 55 AUDIO
    TITLE "1Q_t_0629-0638_55"
    INDEX 01 01:33:28
  TRACK 56 AUDIO
    TITLE "1Q_t_0629-0638_56"
    INDEX 01 01:34:19
  TRACK 57 AUDIO
    TITLE "1Q_t_0629-0638_57"
    INDEX 01 01:34:29
  TRACK 58 AUDIO
    TITLE "1Q_t_0629-0638_58"
    INDEX 01 01:36:02
  TRACK 59 AUDIO
    TITLE "1Q_t_0629-0638_59"
    INDEX 01 01:36:08
  TRACK 60 AUDIO
    TITLE "1Q_t_0629-0638_60"
    INDEX 01 01:41:45
